<mxfile host="app.diagrams.net" modified="2022-06-12T07:48:13.693Z" agent="5.0 (Windows NT 10.0; Win64; x64) AppleWebKit/537.36 (KHTML, like Gecko) Chrome/102.0.0.0 Safari/537.36" etag="TlTwSS3dj5b2PAXn7zFm" version="20.0.0" type="github">
  <diagram id="NAYpggJsyva3lEqOiGOr" name="Page-1">
    <mxGraphModel dx="1369" dy="661" grid="0" gridSize="10" guides="1" tooltips="1" connect="1" arrows="1" fold="1" page="1" pageScale="1" pageWidth="827" pageHeight="1169" math="0" shadow="0">
      <root>
        <mxCell id="0" />
        <mxCell id="1" parent="0" />
        <mxCell id="WDl2ei13sb9K8poqejtt-28" value="" style="rounded=1;whiteSpace=wrap;html=1;" vertex="1" parent="1">
          <mxGeometry x="61" y="225" width="241" height="266" as="geometry" />
        </mxCell>
        <mxCell id="WDl2ei13sb9K8poqejtt-32" style="edgeStyle=orthogonalEdgeStyle;rounded=0;orthogonalLoop=1;jettySize=auto;html=1;exitX=0.25;exitY=1;exitDx=0;exitDy=0;entryX=0;entryY=0.5;entryDx=0;entryDy=0;fontSize=11;endArrow=block;strokeColor=#82b366;strokeWidth=5;fillColor=#d5e8d4;endFill=1;" edge="1" parent="1" source="WDl2ei13sb9K8poqejtt-23" target="WDl2ei13sb9K8poqejtt-31">
          <mxGeometry relative="1" as="geometry" />
        </mxCell>
        <mxCell id="WDl2ei13sb9K8poqejtt-23" value="" style="strokeColor=#dddddd;shadow=1;strokeWidth=1;rounded=1;absoluteArcSize=1;arcSize=2;" vertex="1" parent="1">
          <mxGeometry x="99" y="331" width="160" height="50" as="geometry" />
        </mxCell>
        <mxCell id="WDl2ei13sb9K8poqejtt-24" value="&lt;div style=&quot;text-align: center;&quot;&gt;&lt;span style=&quot;background-color: initial;&quot;&gt;Local MQTT&amp;nbsp;&lt;/span&gt;&lt;span style=&quot;background-color: initial;&quot;&gt;Broder&lt;/span&gt;&lt;/div&gt;" style="sketch=0;dashed=0;connectable=0;html=1;fillColor=#757575;strokeColor=none;shape=mxgraph.gcp2.cluster;part=1;labelPosition=right;verticalLabelPosition=middle;align=left;verticalAlign=middle;spacingLeft=5;fontSize=12;" vertex="1" parent="WDl2ei13sb9K8poqejtt-23">
          <mxGeometry y="0.5" width="32" height="32" relative="1" as="geometry">
            <mxPoint x="5" y="-16" as="offset" />
          </mxGeometry>
        </mxCell>
        <mxCell id="WDl2ei13sb9K8poqejtt-1" value="" style="sketch=0;outlineConnect=0;fontColor=#232F3E;gradientColor=none;fillColor=#3F8624;strokeColor=none;dashed=0;verticalLabelPosition=bottom;verticalAlign=top;align=center;html=1;fontSize=12;fontStyle=0;aspect=fixed;pointerEvents=1;shape=mxgraph.aws4.camera;" vertex="1" parent="1">
          <mxGeometry x="139" y="267" width="78" height="78" as="geometry" />
        </mxCell>
        <mxCell id="WDl2ei13sb9K8poqejtt-3" value="" style="strokeColor=#dddddd;shadow=1;strokeWidth=1;rounded=1;absoluteArcSize=1;arcSize=2;" vertex="1" parent="1">
          <mxGeometry x="361" y="330" width="180" height="50" as="geometry" />
        </mxCell>
        <mxCell id="WDl2ei13sb9K8poqejtt-4" value="&lt;div style=&quot;text-align: center;&quot;&gt;&lt;span style=&quot;background-color: initial;&quot;&gt;MQTT&amp;nbsp;&lt;/span&gt;&lt;span style=&quot;background-color: initial;&quot;&gt;Broder&amp;nbsp;&lt;/span&gt;&lt;span style=&quot;background-color: initial;&quot;&gt;Cluster&lt;/span&gt;&lt;/div&gt;" style="sketch=0;dashed=0;connectable=0;html=1;fillColor=#757575;strokeColor=none;shape=mxgraph.gcp2.cluster;part=1;labelPosition=right;verticalLabelPosition=middle;align=left;verticalAlign=middle;spacingLeft=5;fontSize=12;" vertex="1" parent="WDl2ei13sb9K8poqejtt-3">
          <mxGeometry y="0.5" width="32" height="32" relative="1" as="geometry">
            <mxPoint x="5" y="-16" as="offset" />
          </mxGeometry>
        </mxCell>
        <mxCell id="WDl2ei13sb9K8poqejtt-5" value="" style="shape=image;verticalLabelPosition=bottom;labelBackgroundColor=default;verticalAlign=top;aspect=fixed;imageAspect=0;image=https://is1-ssl.mzstatic.com/image/thumb/Purple114/v4/c5/90/f9/c590f9ae-b6f5-b412-1456-228c4067a8d3/AppIcon-85-220-0-4-2x.png/1200x630bb.png;" vertex="1" parent="1">
          <mxGeometry x="678" y="500" width="100" height="100" as="geometry" />
        </mxCell>
        <mxCell id="WDl2ei13sb9K8poqejtt-6" value="" style="shape=image;verticalLabelPosition=bottom;labelBackgroundColor=default;verticalAlign=top;aspect=fixed;imageAspect=0;image=https://upload.wikimedia.org/wikipedia/commons/2/2d/Mobile-Smartphone-icon.png;" vertex="1" parent="1">
          <mxGeometry x="671" y="360" width="112" height="112" as="geometry" />
        </mxCell>
        <mxCell id="WDl2ei13sb9K8poqejtt-7" value="" style="shape=image;verticalLabelPosition=bottom;labelBackgroundColor=default;verticalAlign=top;aspect=fixed;imageAspect=0;image=https://findicons.com/files/icons/315/hydropro_v2/512/my_computer.png;" vertex="1" parent="1">
          <mxGeometry x="683" y="100" width="102" height="102" as="geometry" />
        </mxCell>
        <mxCell id="WDl2ei13sb9K8poqejtt-8" value="" style="shape=image;verticalLabelPosition=bottom;labelBackgroundColor=default;verticalAlign=top;aspect=fixed;imageAspect=0;image=https://cdn-icons-png.flaticon.com/512/1803/1803974.png;" vertex="1" parent="1">
          <mxGeometry x="671" y="230" width="114" height="114" as="geometry" />
        </mxCell>
        <mxCell id="WDl2ei13sb9K8poqejtt-9" value="" style="endArrow=block;html=1;rounded=0;entryX=0;entryY=0.5;entryDx=0;entryDy=0;strokeWidth=5;fillColor=#dae8fc;strokeColor=#6c8ebf;exitX=1;exitY=0.5;exitDx=0;exitDy=0;endFill=1;" edge="1" parent="1" source="WDl2ei13sb9K8poqejtt-23" target="WDl2ei13sb9K8poqejtt-3">
          <mxGeometry width="50" height="50" relative="1" as="geometry">
            <mxPoint x="451" y="370" as="sourcePoint" />
            <mxPoint x="501" y="320" as="targetPoint" />
          </mxGeometry>
        </mxCell>
        <mxCell id="WDl2ei13sb9K8poqejtt-11" value="&lt;b&gt;Subscribe&lt;/b&gt;" style="text;html=1;strokeColor=#6c8ebf;fillColor=#dae8fc;align=center;verticalAlign=middle;whiteSpace=wrap;rounded=0;" vertex="1" parent="1">
          <mxGeometry x="271" y="310" width="80" height="30" as="geometry" />
        </mxCell>
        <mxCell id="WDl2ei13sb9K8poqejtt-12" value="&lt;b&gt;Publish&lt;/b&gt;" style="text;html=1;strokeColor=#82b366;fillColor=#d5e8d4;align=center;verticalAlign=middle;whiteSpace=wrap;rounded=0;" vertex="1" parent="1">
          <mxGeometry x="541" y="472" width="60" height="30" as="geometry" />
        </mxCell>
        <mxCell id="WDl2ei13sb9K8poqejtt-13" value="&lt;b style=&quot;font-family: Helvetica; font-style: normal; font-variant-ligatures: normal; font-variant-caps: normal; letter-spacing: normal; orphans: 2; text-indent: 0px; text-transform: none; widows: 2; word-spacing: 0px; -webkit-text-stroke-width: 0px; background-color: rgb(248, 249, 250); text-decoration-thickness: initial; text-decoration-style: initial; text-decoration-color: initial;&quot;&gt;&lt;font color=&quot;#0066cc&quot; style=&quot;font-size: 24px;&quot;&gt;Subscriber&lt;/font&gt;&lt;/b&gt;" style="text;whiteSpace=wrap;html=1;align=center;" vertex="1" parent="1">
          <mxGeometry x="219" y="50" width="90" height="30" as="geometry" />
        </mxCell>
        <mxCell id="WDl2ei13sb9K8poqejtt-15" value="" style="endArrow=block;html=1;rounded=0;entryX=0;entryY=0.5;entryDx=0;entryDy=0;strokeWidth=5;fillColor=#d5e8d4;strokeColor=#82b366;exitX=1;exitY=0;exitDx=0;exitDy=0;endFill=1;" edge="1" parent="1" source="WDl2ei13sb9K8poqejtt-3" target="WDl2ei13sb9K8poqejtt-7">
          <mxGeometry width="50" height="50" relative="1" as="geometry">
            <mxPoint x="241.02800000000002" y="279" as="sourcePoint" />
            <mxPoint x="371" y="340" as="targetPoint" />
          </mxGeometry>
        </mxCell>
        <mxCell id="WDl2ei13sb9K8poqejtt-16" value="" style="endArrow=block;html=1;rounded=0;entryX=0;entryY=0.5;entryDx=0;entryDy=0;strokeWidth=5;fillColor=#d5e8d4;strokeColor=#82b366;exitX=1;exitY=0.25;exitDx=0;exitDy=0;endFill=1;" edge="1" parent="1" source="WDl2ei13sb9K8poqejtt-3" target="WDl2ei13sb9K8poqejtt-8">
          <mxGeometry width="50" height="50" relative="1" as="geometry">
            <mxPoint x="551" y="340" as="sourcePoint" />
            <mxPoint x="693" y="161" as="targetPoint" />
          </mxGeometry>
        </mxCell>
        <mxCell id="WDl2ei13sb9K8poqejtt-17" value="" style="endArrow=block;html=1;rounded=0;entryX=0;entryY=0.5;entryDx=0;entryDy=0;strokeWidth=5;fillColor=#d5e8d4;strokeColor=#82b366;exitX=1;exitY=0.75;exitDx=0;exitDy=0;endFill=1;" edge="1" parent="1" source="WDl2ei13sb9K8poqejtt-3" target="WDl2ei13sb9K8poqejtt-6">
          <mxGeometry width="50" height="50" relative="1" as="geometry">
            <mxPoint x="561" y="350" as="sourcePoint" />
            <mxPoint x="681" y="297" as="targetPoint" />
          </mxGeometry>
        </mxCell>
        <mxCell id="WDl2ei13sb9K8poqejtt-18" value="" style="endArrow=block;html=1;rounded=0;entryX=0;entryY=0.5;entryDx=0;entryDy=0;strokeWidth=5;fillColor=#d5e8d4;strokeColor=#82b366;exitX=1;exitY=1;exitDx=0;exitDy=0;endFill=1;" edge="1" parent="1" source="WDl2ei13sb9K8poqejtt-3" target="WDl2ei13sb9K8poqejtt-5">
          <mxGeometry width="50" height="50" relative="1" as="geometry">
            <mxPoint x="571" y="360" as="sourcePoint" />
            <mxPoint x="681" y="426" as="targetPoint" />
          </mxGeometry>
        </mxCell>
        <mxCell id="WDl2ei13sb9K8poqejtt-19" value="&lt;b&gt;Publish&lt;/b&gt;" style="text;html=1;strokeColor=#82b366;fillColor=#d5e8d4;align=center;verticalAlign=middle;whiteSpace=wrap;rounded=0;" vertex="1" parent="1">
          <mxGeometry x="551" y="210" width="60" height="30" as="geometry" />
        </mxCell>
        <mxCell id="WDl2ei13sb9K8poqejtt-20" value="&lt;b&gt;Publish&lt;/b&gt;" style="text;html=1;strokeColor=#82b366;fillColor=#d5e8d4;align=center;verticalAlign=middle;whiteSpace=wrap;rounded=0;" vertex="1" parent="1">
          <mxGeometry x="611" y="320" width="60" height="30" as="geometry" />
        </mxCell>
        <mxCell id="WDl2ei13sb9K8poqejtt-21" value="&lt;b&gt;Publish&lt;/b&gt;" style="text;html=1;strokeColor=#82b366;fillColor=#d5e8d4;align=center;verticalAlign=middle;whiteSpace=wrap;rounded=0;" vertex="1" parent="1">
          <mxGeometry x="611" y="360" width="60" height="30" as="geometry" />
        </mxCell>
        <mxCell id="WDl2ei13sb9K8poqejtt-22" value="&lt;b style=&quot;font-family: Helvetica; font-style: normal; font-variant-ligatures: normal; font-variant-caps: normal; letter-spacing: normal; orphans: 2; text-indent: 0px; text-transform: none; widows: 2; word-spacing: 0px; -webkit-text-stroke-width: 0px; background-color: rgb(248, 249, 250); text-decoration-thickness: initial; text-decoration-style: initial; text-decoration-color: initial;&quot;&gt;&lt;font color=&quot;#009900&quot; style=&quot;font-size: 24px;&quot;&gt;Publisher&lt;/font&gt;&lt;/b&gt;" style="text;whiteSpace=wrap;html=1;align=center;" vertex="1" parent="1">
          <mxGeometry x="551" y="50" width="80" height="30" as="geometry" />
        </mxCell>
        <mxCell id="WDl2ei13sb9K8poqejtt-29" value="&lt;b&gt;&lt;font style=&quot;font-size: 13px;&quot;&gt;Edge PC&lt;/font&gt;&lt;/b&gt;" style="text;html=1;strokeColor=none;fillColor=none;align=center;verticalAlign=middle;whiteSpace=wrap;rounded=0;" vertex="1" parent="1">
          <mxGeometry x="151.5" y="229" width="60" height="30" as="geometry" />
        </mxCell>
        <mxCell id="WDl2ei13sb9K8poqejtt-31" value="" style="shape=image;verticalLabelPosition=bottom;labelBackgroundColor=default;verticalAlign=top;aspect=fixed;imageAspect=0;image=https://cdn3.iconfinder.com/data/icons/business-vol-22/100/Artboard_11-512.png;" vertex="1" parent="1">
          <mxGeometry x="168" y="400" width="80" height="80" as="geometry" />
        </mxCell>
        <mxCell id="WDl2ei13sb9K8poqejtt-34" value="&lt;b&gt;Publish&lt;/b&gt;" style="text;html=1;strokeColor=#82b366;fillColor=#d5e8d4;align=center;verticalAlign=middle;whiteSpace=wrap;rounded=0;" vertex="1" parent="1">
          <mxGeometry x="72" y="395" width="60" height="30" as="geometry" />
        </mxCell>
      </root>
    </mxGraphModel>
  </diagram>
</mxfile>
